# File created by Blade
# Date/Time:  Tue Jan 27 20:12:12 2015
#---------------------------------------------------------
:version 1.10
:name HOM
:units
  mass 1.0
  length 1.000000
  angle deg
:documentation
     Acclaim Skeleton File
:root
   axis xyz
   order TX TY TZ RX RY RZ
   position 0.000000 0.000000 0.000000
   orientation 0 0 0
:bonedata
   begin
      id 1
      name Spine_dum
      direction 0.000000 1.000000 0.000000
      length 6.116652
      axis 0.0 0.0 0.0 xyz
   end
   begin
      id 2
      name LeftUpLeg_dum
      direction 1.000000 0.000000 0.000000
      length 4.711765
      axis 0.0 0.0 0.0 xyz
   end
   begin
      id 3
      name RightUpLeg_dum
      direction -1.000000 0.000000 0.000000
      length 4.711765
      axis 0.0 0.0 0.0 xyz
   end
   begin
      id 4
      name Spine
      direction 0.000000 1.000000 0.000000
      length 0.000000
      axis 0.0 0.0 0.0 xyz
      dof rx ry rz
   end
   begin
      id 5
      name Spine_dum1
      direction 0.000000 1.000000 0.000000
      length 15.225563
      axis 0.0 0.0 0.0 xyz
   end
   begin
      id 6
      name Spine_dum2
      direction 0.000000 1.000000 0.000000
      length 8.977654
      axis 0.0 0.0 0.0 xyz
   end
   begin
      id 7
      name Spine_dum3
      direction 0.000000 1.000000 0.000000
      length 8.977654
      axis 0.0 0.0 0.0 xyz
   end
   begin
      id 8
      name Head
      direction 0.000000 1.000000 0.000000
      length 4.527550
      axis 0.0 0.0 0.0 xyz
      dof rx ry rz
   end
   begin
      id 9
      name LeftShoulder
      direction 1.000000 0.000000 0.000000
      length 7.110130
      axis 0.0 0.0 -90.0 xyz
      dof rx ry rz
   end
   begin
      id 10
      name LeftArm
      direction 1.000000 0.000000 0.000000
      length 10.398341
      axis 0.0 0.0 -90.0 xyz
      dof rx ry rz
   end
   begin
      id 11
      name LeftForeArm
      direction 1.000000 0.000000 0.000000
      length 8.888997
      axis 0.0 0.0 -90.0 xyz
      dof ry rz rx
   end
   begin
      id 12
      name LeftHand
      direction 0.000000 0.000000 0.000000
      length 0.000000
      axis 0.0 0.0 -90.0 xyz
      dof rx ry rz
   end
   begin
      id 13
      name LeftHand_dum1
      direction 0.000000 0.000000 0.000000
      length 0.000000
      axis 0.0 0.0 -90.0 xyz
   end
   begin
      id 14
      name LeftHand_dum2
      direction 1.000000 0.000000 0.000000
      length 3.937000
      axis 0.0 0.0 -90.0 xyz
   end
   begin
      id 15
      name LeftHandThumb1
      direction 0.000000 0.000000 1.000000
      length 3.937000
      axis 0.0 0.0 -90.0 xyz
      dof rx rz ry
   end
   begin
      id 16
      name RightShoulder
      direction -1.000000 0.000000 0.000000
      length 7.110130
      axis 0.0 0.0 90.0 xyz
      dof rx ry rz
   end
   begin
      id 17
      name RightArm
      direction -1.000000 0.000000 0.000000
      length 10.398341
      axis 0.0 0.0 90.0 xyz
      dof rx ry rz
   end
   begin
      id 18
      name RightForeArm
      direction -1.000000 0.000000 0.000000
      length 8.888997
      axis 0.0 0.0 90.0 xyz
      dof ry rz rx
   end
   begin
      id 19
      name RightHand
      direction 0.000000 0.000000 0.000000
      length 0.000000
      axis 0.0 0.0 90.0 xyz
      dof rx ry rz
   end
   begin
      id 20
      name RightHand_dum1
      direction 0.000000 0.000000 0.000000
      length 0.000000
      axis 0.0 0.0 90.0 xyz
   end
   begin
      id 21
      name RightHand_dum2
      direction -1.000000 0.000000 0.000000
      length 3.937000
      axis 0.0 0.0 90.0 xyz
   end
   begin
      id 22
      name RightHandThumb1
      direction 0.000000 0.000000 1.000000
      length 3.937000
      axis 0.0 0.0 90.0 xyz
      dof rx rz ry
   end
   begin
      id 23
      name LeftUpLeg
      direction 0.000000 -1.000000 0.000000
      length 15.510451
      axis 0.0 0.0 0.0 xyz
      dof rx ry rz
   end
   begin
      id 24
      name LeftLeg
      direction 0.000000 -1.000000 0.000000
      length 14.858061
      axis 0.0 0.0 0.0 xyz
      dof rx ry rz
   end
   begin
      id 25
      name LeftFoot
      direction 0.000000 -0.258819 0.965926
      length 5.128852
      axis 15.0 0.0 0.0 xyz
      dof rx ry rz
   end
   begin
      id 26
      name LeftToeBase
      direction 0.000000 0.000000 1.000000
      length 2.952750
      axis 0.0 0.0 0.0 xyz
      dof rx ry rz
   end
   begin
      id 27
      name RightUpLeg
      direction 0.000000 -1.000000 0.000000
      length 15.510451
      axis 0.0 0.0 0.0 xyz
      dof rx ry rz
   end
   begin
      id 28
      name RightLeg
      direction 0.000000 -1.000000 0.000000
      length 14.858061
      axis 0.0 0.0 0.0 xyz
      dof rx ry rz
   end
   begin
      id 29
      name RightFoot
      direction 0.000000 -0.258819 0.965926
      length 5.128852
      axis 15.0 0.0 0.0 xyz
      dof rx ry rz
   end
   begin
      id 30
      name RightToeBase
      direction 0.000000 0.000000 1.000000
      length 2.952750
      axis 0.0 0.0 0.0 xyz
      dof rx ry rz
   end
:hierarchy
   begin
      root Spine_dum LeftUpLeg_dum RightUpLeg_dum
      Spine_dum Spine
      LeftUpLeg_dum LeftUpLeg
      RightUpLeg_dum RightUpLeg
      Spine Spine_dum1 Spine_dum2 Spine_dum3
      Spine_dum1 Head
      Spine_dum2 LeftShoulder
      Spine_dum3 RightShoulder
      LeftShoulder LeftArm
      LeftArm LeftForeArm
      LeftForeArm LeftHand
      LeftHand LeftHand_dum1 LeftHand_dum2
      LeftHand_dum1 LeftHandThumb1
      RightShoulder RightArm
      RightArm RightForeArm
      RightForeArm RightHand
      RightHand RightHand_dum1 RightHand_dum2
      RightHand_dum1 RightHandThumb1
      LeftUpLeg LeftLeg
      LeftLeg LeftFoot
      LeftFoot LeftToeBase
      RightUpLeg RightLeg
      RightLeg RightFoot
      RightFoot RightToeBase
   end

# File created by Blade
# Date/Time:  Tue Jan 27 20:12:02 2015
# Frame Rate: 120.000 fps
#------------------------------------------------------
:FULLY-SPECIFIED
:DEGREES
225
root 6.987960 32.288399 -3.526395 -0.383975 2.928120 0.907086
Spine 5.076007 7.080096 -0.540308
Head 8.552486 -9.421254 1.176223
LeftShoulder -15.501297 2.149283 29.638286
LeftArm -15.147359 -32.099539 -78.830390
LeftForeArm 9.468069 0.000000 110.928892
LeftHand 6.337388 0.000000 33.194278
LeftHandThumb1 -26.253704 0.000000 33.147579
RightShoulder -20.878656 -21.774897 -23.370397
RightArm 13.009686 -29.703777 88.332508
RightForeArm -23.720751 -0.000000 102.358212
RightHand 17.518020 0.000000 0.571884
RightHandThumb1 -24.326973 -0.000000 -32.862282
LeftUpLeg 5.211070 -6.413840 -7.354276
LeftLeg -0.083920 -0.000000 0.000000
LeftFoot -16.051189 19.755157 -16.386331
LeftToeBase 19.964175 -0.000000 -0.000000
RightUpLeg -4.200144 -7.277692 0.871250
RightLeg 22.141207 -0.000000 -0.000000
RightFoot -23.097270 -9.255964 24.360719
RightToeBase 7.957190 -0.000000 -0.000000
226
root 7.017308 32.285436 -3.516268 -0.420333 3.008094 0.883789
Spine 5.097761 7.046685 -0.517097
Head 8.761347 -9.450964 1.154590
LeftShoulder -15.496909 2.060973 29.631480
LeftArm -15.317801 -32.147801 -78.703967
LeftForeArm 9.523216 -0.000000 110.521549
LeftHand 6.480362 0.000000 33.368808
LeftHandThumb1 -26.253704 0.000000 33.147579
RightShoulder -20.889550 -21.730612 -23.376225
RightArm 12.903271 -29.658587 88.448470
RightForeArm -23.752649 -0.000000 102.340729
RightHand 17.469597 -0.000000 0.493564
RightHandThumb1 -24.326973 -0.000000 -32.862282
LeftUpLeg 5.221083 -6.353046 -7.375555
LeftLeg 0.019816 -0.000000 -0.000000
LeftFoot -16.129385 19.608636 -16.384776
LeftToeBase 19.955116 -0.000000 -0.000000
RightUpLeg -4.233477 -7.580473 0.871605
RightLeg 23.134125 -0.000000 -0.000000
RightFoot -23.404452 -9.326733 24.435073
RightToeBase 8.116971 -0.000000 -0.000000
227
root 7.048752 32.281583 -3.506054 -0.457115 3.070553 0.899235
Spine 5.113934 7.052008 -0.557449
Head 8.981101 -9.530606 1.183144
LeftShoulder -15.506898 2.034178 29.659659
LeftArm -15.374831 -32.187632 -78.691607
LeftForeArm 9.539960 -0.000000 110.128015
LeftHand 6.608380 -0.000000 33.567359
LeftHandThumb1 -26.253704 0.000000 33.147579
RightShoulder -20.880002 -21.538626 -23.422493
RightArm 12.604755 -29.604513 88.629525
RightForeArm -23.707076 -0.000000 102.335529
RightHand 17.434319 -0.000000 0.535810
RightHandThumb1 -24.326973 -0.000000 -32.862282
LeftUpLeg 5.232889 -6.365429 -7.441843
LeftLeg 0.105173 -0.000000 -0.000000
LeftFoot -16.173377 19.493716 -16.367372
LeftToeBase 20.047370 -0.000000 -0.000000
RightUpLeg -4.265356 -7.864328 0.841040
RightLeg 24.224872 -0.000000 -0.000000
RightFoot -23.844163 -9.621206 24.676397
RightToeBase 8.112902 -0.000000 -0.000000
228
root 7.078375 32.278272 -3.494490 -0.501851 3.167046 0.887076
Spine 5.133311 7.030376 -0.550475
Head 9.216131 -9.568158 1.187781
LeftShoulder -15.546745 2.080225 29.640436
LeftArm -15.283391 -32.177634 -78.760520
LeftForeArm 9.517034 -0.000000 109.710167
LeftHand 6.839521 -0.000000 33.827824
LeftHandThumb1 -26.253704 0.000000 33.147579
RightShoulder -20.908829 -21.720184 -23.335253
RightArm 12.748502 -29.534314 88.614883
RightForeArm -23.739286 -0.000000 102.327984
RightHand 17.450588 0.000000 0.565119
RightHandThumb1 -24.326973 -0.000000 -32.862282
LeftUpLeg 5.241072 -6.336565 -7.482810
LeftLeg 0.213020 -0.000000 -0.000000
LeftFoot -16.280430 19.347967 -16.411434
LeftToeBase 20.265173 -0.000000 -0.000000
RightUpLeg -4.275349 -8.085977 0.836978
RightLeg 25.381393 -0.000000 -0.000000
RightFoot -24.334429 -10.105236 25.019972
RightToeBase 7.922022 -0.000000 -0.000000
229
root 7.110959 32.274410 -3.483304 -0.522212 3.262233 0.922890
Spine 5.119383 7.031980 -0.604180
Head 9.446819 -9.664935 1.208366
LeftShoulder -15.568397 2.053496 29.624908
LeftArm -15.288257 -32.141103 -78.741965
LeftForeArm 9.625670 0.000000 109.321016
LeftHand 6.949047 0.000000 33.868144
LeftHandThumb1 -26.253704 0.000000 33.147579
RightShoulder -20.940397 -21.786536 -23.284608
RightArm 12.725620 -29.466135 88.670578
RightForeArm -23.762815 -0.000000 102.325551
RightHand 17.521237 -0.000000 0.597325
RightHandThumb1 -24.326973 -0.000000 -32.862282
LeftUpLeg 5.248150 -6.398422 -7.566702
LeftLeg 0.295019 -0.000000 -0.000000
LeftFoot -16.204724 19.283919 -16.241932
LeftToeBase 20.044583 -0.000000 -0.000000
RightUpLeg -4.313588 -8.328698 0.777932
RightLeg 26.657736 -0.000000 -0.000000
RightFoot -24.859330 -10.598908 25.414713
RightToeBase 8.104448 -0.000000 -0.000000
230
root 7.138232 32.269530 -3.469105 -0.571726 3.344566 0.900974
Spine 5.119179 7.052919 -0.589031
Head 9.697150 -9.802569 1.210573
LeftShoulder -15.547069 1.997896 29.671213
LeftArm -15.345112 -32.116581 -78.769889
LeftForeArm 9.645051 -0.000000 108.891342
LeftHand 7.157877 -0.000000 34.047073
LeftHandThumb1 -26.253704 0.000000 33.147579
RightShoulder -20.932259 -21.748165 -23.303274
RightArm 12.560004 -29.370185 88.809717
RightForeArm -23.871268 -0.000000 102.345296
RightHand 17.476904 -0.000000 0.709853
RightHandThumb1 -24.326973 -0.000000 -32.862282
LeftUpLeg 5.294095 -6.372151 -7.598127
LeftLeg 0.360499 -0.000000 -0.000000
LeftFoot -16.211135 19.201221 -16.059226
LeftToeBase 20.013044 -0.000000 -0.000000
RightUpLeg -4.270781 -8.503570 0.766229
RightLeg 27.885571 -0.000000 -0.000000
RightFoot -25.441190 -10.957709 26.122640
RightToeBase 7.830715 -0.000000 -0.000000
231
root 7.170550 32.265095 -3.453004 -0.624998 3.411526 0.949779
Spine 5.118110 7.057645 -0.653108
Head 9.956267 -9.848081 1.209692
LeftShoulder -15.582740 2.035692 29.679168
LeftArm -15.281777 -32.045218 -78.831898
LeftForeArm 9.725236 -0.000000 108.410681
LeftHand 7.576548 -0.000000 34.648275
LeftHandThumb1 -26.253704 0.000000 33.147579
RightShoulder -20.923095 -21.801246 -23.285832
RightArm 12.516921 -29.321443 88.882884
RightForeArm -23.923156 -0.000000 102.352107
RightHand 17.434004 0.000000 0.771795
RightHandThumb1 -24.326973 -0.000000 -32.862282
LeftUpLeg 5.358834 -6.378270 -7.696999
LeftLeg 0.403711 -0.000000 -0.000000
LeftFoot -16.238506 19.131171 -16.103269
LeftToeBase 20.017708 -0.000000 -0.000000
RightUpLeg -4.256154 -8.737745 0.683885
RightLeg 29.267752 -0.000000 -0.000000
RightFoot -25.879333 -11.618026 25.840973
RightToeBase 7.769387 -0.000000 -0.000000
232
root 7.196859 32.260292 -3.436951 -0.673762 3.470769 0.960992
Spine 5.110278 7.133777 -0.682922
Head 10.201878 -9.969416 1.219063
LeftShoulder -15.571438 2.014476 29.696183
LeftArm -15.251817 -31.960589 -78.862153
LeftForeArm 9.833149 -0.000000 107.961899
LeftHand 7.800343 -0.000000 34.230078
LeftHandThumb1 -26.253704 0.000000 33.147579
RightShoulder -21.001112 -21.878796 -23.220428
RightArm 12.513701 -29.321055 88.895136
RightForeArm -23.802767 -0.000000 102.342043
RightHand 17.458956 -0.000000 0.752898
RightHandThumb1 -24.326973 -0.000000 -32.862282
LeftUpLeg 5.430493 -6.312913 -7.747887
LeftLeg 0.422246 -0.000000 -0.000000
LeftFoot -16.234014 19.031776 -16.042278
LeftToeBase 19.906260 -0.000000 -0.000000
RightUpLeg -4.218065 -8.907394 0.645134
RightLeg 30.670792 -0.000000 -0.000000
RightFoot -26.293487 -11.910223 26.121225
RightToeBase 7.443405 -0.000000 -0.000000
233
root 7.223003 32.254725 -3.422342 -0.691498 3.527953 0.997205
Spine 5.058907 7.240367 -0.752425
Head 10.461963 -10.145239 1.248122
LeftShoulder -15.494267 1.901132 29.746083
LeftArm -15.362850 -31.887363 -78.815450
LeftForeArm 9.834462 0.000000 107.523378
LeftHand 7.968443 0.000000 34.383667
LeftHandThumb1 -26.253704 0.000000 33.147579
RightShoulder -21.089069 -22.003019 -23.133624
RightArm 12.537112 -29.311082 88.905739
RightForeArm -23.754169 -0.000000 102.336199
RightHand 17.487760 -0.000000 0.653662
RightHandThumb1 -24.326973 -0.000000 -32.862282
LeftUpLeg 5.451605 -6.244776 -7.812251
LeftLeg 0.465579 -0.000000 -0.000000
LeftFoot -16.229398 18.840419 -15.992865
LeftToeBase 20.074020 -0.000000 -0.000000
RightUpLeg -4.235017 -9.081186 0.592075
RightLeg 32.181318 -0.000000 -0.000000
RightFoot -26.704758 -12.342534 26.277006
RightToeBase 7.438906 -0.000000 -0.000000
234
root 7.254119 32.249518 -3.402865 -0.738865 3.569817 1.024893
Spine 5.032376 7.284421 -0.781808
Head 10.709389 -10.216618 1.235615
LeftShoulder -15.505082 1.898203 29.729615
LeftArm -15.365477 -31.793867 -78.817157
LeftForeArm 9.907913 -0.000000 107.072958
LeftHand 8.187185 -0.000000 34.547778
LeftHandThumb1 -26.253704 0.000000 33.147579
RightShoulder -21.097171 -21.988348 -23.153875
RightArm 12.439151 -29.340270 88.951837
RightForeArm -23.737856 0.000000 102.318149
RightHand 17.513099 -0.000000 0.380071
RightHandThumb1 -24.326973 -0.000000 -32.862282
LeftUpLeg 5.533464 -6.237583 -7.894130
LeftLeg 0.468617 -0.000000 -0.000000
LeftFoot -16.228475 18.810827 -15.960396
LeftToeBase 20.117068 -0.000000 -0.000000
RightUpLeg -4.217284 -9.194692 0.524827
RightLeg 33.759129 -0.000000 -0.000000
RightFoot -27.021022 -12.987459 26.173447
RightToeBase 7.344813 -0.000000 -0.000000
